<mxfile host="app.diagrams.net" modified="2024-04-28T23:39:47.851Z" agent="Mozilla/5.0 (Windows NT 10.0; Win64; x64) AppleWebKit/537.36 (KHTML, like Gecko) Chrome/124.0.0.0 Safari/537.36" version="24.2.8" etag="Q862rJNTl5Cll0UA0yp0" type="github">
  <diagram name="Page-1" id="4k5wG5B2SytiDILw_4JH">
    <mxGraphModel>
      <root>
        <mxCell id="0" />
        <mxCell id="1" parent="0" />
      </root>
    </mxGraphModel>
  </diagram>
</mxfile>
